<svg width="32" height="32" viewBox="0 0 32 32" fill="none" xmlns="http://www.w3.org/2000/svg">
<path d="M26.0133 2C26.3199 1.99969 26.6172 2.10506 26.8553 2.29839C27.0933 2.49171 27.2574 2.76115 27.3199 3.06133L30.6399 19.0613C30.6573 19.1493 30.6666 19.24 30.6666 19.3333V28C30.6666 28.3536 30.5261 28.6928 30.2761 28.9428C30.026 29.1929 29.6869 29.3333 29.3333 29.3333H2.66659C2.31296 29.3333 1.97382 29.1929 1.72378 28.9428C1.47373 28.6928 1.33325 28.3536 1.33325 28V19.3333C1.33325 19.24 1.34259 19.1467 1.36125 19.0573L4.72125 3.05867C4.78425 2.75943 4.94819 2.49093 5.1856 2.29819C5.42301 2.10545 5.71945 2.00017 6.02525 2H26.0133ZM27.9999 20.6667H3.99992V26.6667H27.9999V20.6667ZM25.3333 23.6667C25.3333 23.2246 25.1577 22.8007 24.8451 22.4882C24.5325 22.1756 24.1086 22 23.6666 22C23.2246 22 22.8006 22.1756 22.4881 22.4882C22.1755 22.8007 21.9999 23.2246 21.9999 23.6667C21.9999 24.1087 22.1755 24.5326 22.4881 24.8452C22.8006 25.1577 23.2246 25.3333 23.6666 25.3333C24.1086 25.3333 24.5325 25.1577 24.8451 24.8452C25.1577 24.5326 25.3333 24.1087 25.3333 23.6667ZM17.9999 22.3333C18.175 22.3333 18.3484 22.3678 18.5102 22.4348C18.672 22.5018 18.819 22.6 18.9429 22.7238C19.0667 22.8476 19.1649 22.9946 19.2319 23.1564C19.299 23.3182 19.3335 23.4916 19.3335 23.6667C19.3335 23.8418 19.299 24.0152 19.2319 24.177C19.1649 24.3387 19.0667 24.4857 18.9429 24.6096C18.819 24.7334 18.672 24.8316 18.5102 24.8986C18.3484 24.9656 18.175 25 17.9999 25H6.66658C6.49147 25 6.31807 24.9656 6.15628 24.8986C5.99449 24.8316 5.84748 24.7334 5.72364 24.6096C5.59981 24.4857 5.50158 24.3387 5.43456 24.177C5.36754 24.0152 5.33305 23.8418 5.33305 23.6667C5.33305 23.4916 5.36754 23.3182 5.43456 23.1564C5.50158 22.9946 5.59981 22.8476 5.72364 22.7238C5.84748 22.6 5.99449 22.5018 6.15628 22.4348C6.31807 22.3678 6.49147 22.3333 6.66658 22.3333H17.9999ZM7.10659 4.66667H24.9279L27.6933 18H4.30792L7.10659 4.66667Z" fill="#AFC1D1"/>
<path d="M15.4928 8.3642L14 9.30247V7.9321L15.4928 7H17V16H15.4928V8.3642Z" fill="#1C1F2A"/>
</svg>
