<svg width="32" height="32" viewBox="0 0 32 32" fill="none" xmlns="http://www.w3.org/2000/svg">
<path d="M29.3333 16C29.3333 17.7681 28.6309 19.4638 27.3807 20.7141C26.1304 21.9643 24.4347 22.6667 22.6666 22.6667C20.8985 22.6667 19.2028 21.9643 17.9526 20.7141C16.7023 19.4638 16 17.7681 16 16C16 14.2319 15.2976 12.5362 14.0473 11.286C12.7971 10.0357 11.1014 9.33334 9.33329 9.33334C7.56518 9.33334 5.86949 10.0357 4.61925 11.286C3.369 12.5362 2.66663 14.2319 2.66663 16" stroke="#1C77EC" stroke-width="2.66667" stroke-linecap="round" stroke-linejoin="round"/>
<path d="M9.33336 27.6C7.79511 26.7159 6.67104 25.257 6.20845 23.5442C5.74586 21.8314 5.98264 20.0049 6.86669 18.4667C7.75075 16.9284 9.20967 15.8043 10.9225 15.3417C12.6353 14.8792 14.4618 15.1159 16 16C16.7529 16.4377 17.5847 16.7229 18.4478 16.8392C19.3109 16.9555 20.1885 16.9006 21.0304 16.6778C21.8723 16.4549 22.6621 16.0684 23.3547 15.5403C24.0472 15.0122 24.629 14.3529 25.0667 13.6C25.5044 12.8471 25.7896 12.0153 25.9059 11.1522C26.0222 10.2891 25.9673 9.41152 25.7445 8.5696C25.5216 7.72768 25.1351 6.93791 24.607 6.24536C24.0789 5.55282 23.4196 4.97106 22.6667 4.53333" stroke="#1C77EC" stroke-width="2.66667" stroke-linecap="round" stroke-linejoin="round"/>
<path d="M9.33337 4.4C10.8539 3.51594 12.6634 3.27214 14.3638 3.72223C16.0641 4.17232 17.516 5.27942 18.4 6.8C19.2841 8.32057 19.5279 10.1301 19.0778 11.8304C18.6277 13.5307 17.5206 14.9826 16 15.8667C14.4795 16.7507 13.3724 18.2026 12.9223 19.9029C12.4722 21.6033 12.716 23.4128 13.6 24.9333C14.4841 26.4539 15.936 27.561 17.6363 28.0111C19.3366 28.4612 21.1461 28.2174 22.6667 27.3333" stroke="#1C77EC" stroke-width="2.66667" stroke-linecap="round" stroke-linejoin="round"/>
<path d="M16 29.3333C23.3638 29.3333 29.3333 23.3638 29.3333 16C29.3333 8.63619 23.3638 2.66666 16 2.66666C8.63616 2.66666 2.66663 8.63619 2.66663 16C2.66663 23.3638 8.63616 29.3333 16 29.3333Z" stroke="#1C77EC" stroke-width="2.66667" stroke-linecap="round" stroke-linejoin="round"/>
</svg>
