<svg width="32" height="32" viewBox="0 0 32 32" fill="none" xmlns="http://www.w3.org/2000/svg">
<path d="M16 29.3333V16" stroke="#7377B8" stroke-width="2.66667" stroke-linecap="round" stroke-linejoin="round"/>
<path d="M21.3334 22.6667H29.3334" stroke="#7377B8" stroke-width="2.66667" stroke-linecap="round" stroke-linejoin="round"/>
<path d="M25.3334 18.6667V26.6667" stroke="#7377B8" stroke-width="2.66667" stroke-linecap="round" stroke-linejoin="round"/>
<path d="M28 14.0467V10.6667C27.9995 10.199 27.8761 9.73975 27.6421 9.33489C27.408 8.93002 27.0717 8.59382 26.6667 8.36L17.3333 3.02667C16.9279 2.79262 16.4681 2.6694 16 2.6694C15.5319 2.6694 15.0721 2.79262 14.6667 3.02667L5.33333 8.36C4.92835 8.59382 4.59197 8.93002 4.35795 9.33489C4.12392 9.73975 4.00048 10.199 4 10.6667V21.3333C4.00071 21.8007 4.12427 22.2598 4.35828 22.6644C4.59229 23.069 4.92855 23.405 5.33333 23.6387L14.6667 28.972C15.0719 29.2063 15.5317 29.3297 15.9998 29.3299C16.4679 29.3302 16.9278 29.2072 17.3333 28.9733L19.5667 27.7" stroke="#7377B8" stroke-width="2.66667" stroke-linecap="round" stroke-linejoin="round"/>
<path d="M4.38672 9.33334L16.0001 16L27.6134 9.33334" stroke="#7377B8" stroke-width="2.66667" stroke-linecap="round" stroke-linejoin="round"/>
<path d="M10 5.69333L21.996 12.5573" stroke="#7377B8" stroke-width="2.66667" stroke-linecap="round" stroke-linejoin="round"/>
</svg>
