<svg width="32" height="32" viewBox="0 0 32 32" fill="none" xmlns="http://www.w3.org/2000/svg">
<path d="M12.75 9.75H14.25C14.3875 9.75 14.5 9.6375 14.5 9.5V8C14.5 7.8625 14.3875 7.75 14.25 7.75H12.75C12.6125 7.75 12.5 7.8625 12.5 8V9.5C12.5 9.6375 12.6125 9.75 12.75 9.75Z" fill="#AFC1D1"/>
<path d="M23.75 13.5V4.5C23.75 3.94687 23.3031 3.5 22.75 3.5H9.25C8.69687 3.5 8.25 3.94687 8.25 4.5V13.5C6.18125 13.5 4.5 15.1281 4.5 17.125V28.25C4.5 28.3875 4.6125 28.5 4.75 28.5H27.25C27.3875 28.5 27.5 28.3875 27.5 28.25V17.125C27.5 15.1281 25.8187 13.5 23.75 13.5ZM21.5 13.5H10.5V5.75H21.5V13.5Z" fill="#AFC1D1"/>
<path d="M15.1094 21.1387V20.0547H15.5312C15.9492 20.0547 16.2734 19.9395 16.5039 19.709C16.7344 19.4863 16.8496 19.1973 16.8496 18.8418C16.8418 18.4824 16.7227 18.1875 16.4922 17.957C16.2617 17.7344 15.9648 17.6191 15.6016 17.6113C15.3398 17.6113 15.1016 17.6953 14.8867 17.8633C14.6602 18.0312 14.5078 18.291 14.4297 18.6426H13.2051C13.2676 18.0098 13.5234 17.4766 13.9727 17.043C14.4141 16.6133 14.9414 16.3945 15.5547 16.3867C16.332 16.3945 16.9492 16.6426 17.4062 17.1309C17.8438 17.6074 18.0664 18.1699 18.0742 18.8184C18.0742 19.1465 18.0156 19.4629 17.8984 19.7676C17.7617 20.0723 17.5176 20.3438 17.166 20.582C17.5254 20.8164 17.7852 21.0977 17.9453 21.4258C18.0977 21.7539 18.1738 22.0977 18.1738 22.457C18.166 23.2578 17.918 23.8887 17.4297 24.3496C16.9492 24.8223 16.332 25.0625 15.5781 25.0703C14.9961 25.0703 14.4805 24.8828 14.0312 24.5078C13.582 24.1328 13.291 23.5898 13.1582 22.8789H14.3828C14.4922 23.1641 14.6465 23.3945 14.8457 23.5703C15.0488 23.7539 15.3184 23.8457 15.6543 23.8457C16.0137 23.8457 16.3164 23.7227 16.5625 23.4766C16.8125 23.2461 16.9414 22.918 16.9492 22.4922C16.9414 22.0586 16.8125 21.7227 16.5625 21.4844C16.3164 21.2539 16.0039 21.1387 15.625 21.1387H15.1094Z" fill="#1C1F2A"/>
<path d="M17.75 9.75H19.25C19.3875 9.75 19.5 9.6375 19.5 9.5V8C19.5 7.8625 19.3875 7.75 19.25 7.75H17.75C17.6125 7.75 17.5 7.8625 17.5 8V9.5C17.5 9.6375 17.6125 9.75 17.75 9.75Z" fill="#AFC1D1"/>
</svg>
