<svg width="32" height="32" viewBox="0 0 32 32" fill="none" xmlns="http://www.w3.org/2000/svg">
<path d="M12.75 9.75H14.25C14.3875 9.75 14.5 9.6375 14.5 9.5V8C14.5 7.8625 14.3875 7.75 14.25 7.75H12.75C12.6125 7.75 12.5 7.8625 12.5 8V9.5C12.5 9.6375 12.6125 9.75 12.75 9.75Z" fill="#AFC1D1"/>
<path d="M23.75 13.5V4.5C23.75 3.94687 23.3031 3.5 22.75 3.5H9.25C8.69687 3.5 8.25 3.94687 8.25 4.5V13.5C6.18125 13.5 4.5 15.1281 4.5 17.125V28.25C4.5 28.3875 4.6125 28.5 4.75 28.5H27.25C27.3875 28.5 27.5 28.3875 27.5 28.25V17.125C27.5 15.1281 25.8187 13.5 23.75 13.5ZM21.5 13.5H10.5V5.75H21.5V13.5Z" fill="#AFC1D1"/>
<path d="M13.3867 25V23.8457L16.7207 19.6738C16.8496 19.5059 16.9375 19.3496 16.9844 19.2051C17.0156 19.0684 17.0312 18.9395 17.0312 18.8184C17.0312 18.498 16.9316 18.2188 16.7324 17.9805C16.5254 17.7422 16.2324 17.6191 15.8535 17.6113C15.5176 17.6113 15.2383 17.7188 15.0156 17.9336C14.7852 18.1484 14.6484 18.4512 14.6055 18.8418H13.3867C13.418 18.1309 13.6562 17.543 14.1016 17.0781C14.5508 16.625 15.1035 16.3945 15.7598 16.3867C16.4941 16.3945 17.0898 16.6289 17.5469 17.0898C18.0117 17.5469 18.248 18.127 18.2559 18.8301C18.2559 19.3926 18.084 19.8926 17.7402 20.3301L14.9922 23.7754H18.2559V25H13.3867Z" fill="#1C1F2A"/>
<path d="M17.75 9.75H19.25C19.3875 9.75 19.5 9.6375 19.5 9.5V8C19.5 7.8625 19.3875 7.75 19.25 7.75H17.75C17.6125 7.75 17.5 7.8625 17.5 8V9.5C17.5 9.6375 17.6125 9.75 17.75 9.75Z" fill="#AFC1D1"/>
</svg>
