<svg width="32" height="32" viewBox="0 0 32 32" fill="none" xmlns="http://www.w3.org/2000/svg">
<path d="M12.75 9.75H14.25C14.3875 9.75 14.5 9.6375 14.5 9.5V8C14.5 7.8625 14.3875 7.75 14.25 7.75H12.75C12.6125 7.75 12.5 7.8625 12.5 8V9.5C12.5 9.6375 12.6125 9.75 12.75 9.75Z" fill="#AFC1D1"/>
<path d="M23.75 13.5V4.5C23.75 3.94687 23.3031 3.5 22.75 3.5H9.25C8.69687 3.5 8.25 3.94687 8.25 4.5V13.5C6.18125 13.5 4.5 15.1281 4.5 17.125V28.25C4.5 28.3875 4.6125 28.5 4.75 28.5H27.25C27.3875 28.5 27.5 28.3875 27.5 28.25V17.125C27.5 15.1281 25.8187 13.5 23.75 13.5ZM21.5 13.5H10.5V5.75H21.5V13.5Z" fill="#AFC1D1"/>
<path d="M13.5977 21.0742V16.457H18.1504V17.6816H14.752V19.6152C15.1504 19.3027 15.6055 19.1465 16.1172 19.1465C16.4453 19.1543 16.7461 19.2129 17.0195 19.3223C17.2773 19.4434 17.4863 19.5918 17.6465 19.7676C17.8848 20.002 18.0566 20.2734 18.1621 20.582C18.2168 20.75 18.2559 20.9551 18.2793 21.1973C18.3027 21.4434 18.3145 21.7461 18.3145 22.1055C18.3145 22.6602 18.2754 23.0859 18.1973 23.3828C18.1152 23.6758 17.9785 23.9355 17.7871 24.1621C17.6191 24.3848 17.375 24.5879 17.0547 24.7715C16.7422 24.9629 16.3711 25.0625 15.9414 25.0703C15.3633 25.0703 14.834 24.8984 14.3535 24.5547C13.8652 24.2031 13.5625 23.6348 13.4453 22.8496H14.6699C14.8027 23.5059 15.2109 23.8379 15.8945 23.8457C16.1875 23.8457 16.4219 23.7871 16.5977 23.6699C16.7656 23.5566 16.8828 23.4082 16.9492 23.2246C17.0195 23.041 17.0625 22.8418 17.0781 22.627C17.0859 22.416 17.0898 22.2109 17.0898 22.0117C17.0977 21.5234 17.0215 21.127 16.8613 20.8223C16.7754 20.6777 16.6484 20.5625 16.4805 20.4766C16.3125 20.4062 16.1035 20.3711 15.8535 20.3711C15.6309 20.3711 15.4277 20.4219 15.2441 20.5234C15.0605 20.6289 14.8965 20.8125 14.752 21.0742H13.5977Z" fill="#1C1F2A"/>
<path d="M17.75 9.75H19.25C19.3875 9.75 19.5 9.6375 19.5 9.5V8C19.5 7.8625 19.3875 7.75 19.25 7.75H17.75C17.6125 7.75 17.5 7.8625 17.5 8V9.5C17.5 9.6375 17.6125 9.75 17.75 9.75Z" fill="#AFC1D1"/>
</svg>
