<svg width="32" height="32" viewBox="0 0 32 32" fill="none" xmlns="http://www.w3.org/2000/svg">
<path d="M12.75 9.75H14.25C14.3875 9.75 14.5 9.6375 14.5 9.5V8C14.5 7.8625 14.3875 7.75 14.25 7.75H12.75C12.6125 7.75 12.5 7.8625 12.5 8V9.5C12.5 9.6375 12.6125 9.75 12.75 9.75Z" fill="#AFC1D1"/>
<path d="M23.75 13.5V4.5C23.75 3.94687 23.3031 3.5 22.75 3.5H9.25C8.69687 3.5 8.25 3.94687 8.25 4.5V13.5C6.18125 13.5 4.5 15.1281 4.5 17.125V28.25C4.5 28.3875 4.6125 28.5 4.75 28.5H27.25C27.3875 28.5 27.5 28.3875 27.5 28.25V17.125C27.5 15.1281 25.8187 13.5 23.75 13.5ZM21.5 13.5H10.5V5.75H21.5V13.5Z" fill="#AFC1D1"/>
<path d="M17.0781 22.5391V18.918C17.0547 18.0625 16.6543 17.627 15.877 17.6113C15.0957 17.627 14.6973 18.0625 14.6816 18.918V22.5391C14.6973 23.4023 15.0957 23.8379 15.877 23.8457C16.6543 23.8379 17.0547 23.4023 17.0781 22.5391ZM13.457 22.6094V18.8418C13.4648 18.0527 13.7168 17.4453 14.2129 17.0195C14.6777 16.5977 15.2324 16.3867 15.877 16.3867C16.541 16.3867 17.1055 16.5977 17.5703 17.0195C18.043 17.4453 18.2871 18.0527 18.3027 18.8418V22.6094C18.2871 23.3945 18.043 24 17.5703 24.4258C17.1055 24.8477 16.541 25.0625 15.877 25.0703C15.2324 25.0625 14.6777 24.8477 14.2129 24.4258C13.7168 24 13.4648 23.3945 13.457 22.6094Z" fill="#1C1F2A"/>
<path d="M17.75 9.75H19.25C19.3875 9.75 19.5 9.6375 19.5 9.5V8C19.5 7.8625 19.3875 7.75 19.25 7.75H17.75C17.6125 7.75 17.5 7.8625 17.5 8V9.5C17.5 9.6375 17.6125 9.75 17.75 9.75Z" fill="#AFC1D1"/>
</svg>
