<svg width="32" height="32" viewBox="0 0 32 32" fill="none" xmlns="http://www.w3.org/2000/svg">
<path d="M12.75 9.75H14.25C14.3875 9.75 14.5 9.6375 14.5 9.5V8C14.5 7.8625 14.3875 7.75 14.25 7.75H12.75C12.6125 7.75 12.5 7.8625 12.5 8V9.5C12.5 9.6375 12.6125 9.75 12.75 9.75Z" fill="#AFC1D1"/>
<path d="M23.75 13.5V4.5C23.75 3.94687 23.3031 3.5 22.75 3.5H9.25C8.69687 3.5 8.25 3.94687 8.25 4.5V13.5C6.18125 13.5 4.5 15.1281 4.5 17.125V28.25C4.5 28.3875 4.6125 28.5 4.75 28.5H27.25C27.3875 28.5 27.5 28.3875 27.5 28.25V17.125C27.5 15.1281 25.8187 13.5 23.75 13.5ZM21.5 13.5H10.5V5.75H21.5V13.5Z" fill="#AFC1D1"/>
<path d="M17.4532 16.3691C17.4571 16.3691 17.4376 16.4121 17.3946 16.498C17.3556 16.5801 17.3009 16.6934 17.2306 16.8379C17.1603 16.9824 17.0782 17.1484 16.9845 17.3359C16.8907 17.5234 16.7911 17.7207 16.6856 17.9277C16.5841 18.1348 16.4786 18.3438 16.3692 18.5547C16.2638 18.7656 16.1603 18.9668 16.0587 19.1582C15.961 19.3496 15.8712 19.5234 15.7892 19.6797C15.7071 19.8359 15.6388 19.9609 15.5841 20.0547C15.6974 19.9883 15.8243 19.9492 15.9649 19.9375C16.1095 19.9219 16.2755 19.918 16.463 19.9258C16.7325 19.9336 16.9669 19.9805 17.1661 20.0664C17.3692 20.1523 17.5431 20.2598 17.6876 20.3887C17.8321 20.5176 17.9513 20.6621 18.045 20.8223C18.1427 20.9785 18.2188 21.1328 18.2735 21.2852C18.3282 21.4336 18.3653 21.5742 18.3849 21.707C18.4083 21.8359 18.42 21.9375 18.42 22.0117C18.42 22.0352 18.42 22.0781 18.42 22.1406C18.42 22.2031 18.42 22.2734 18.42 22.3516C18.42 22.4258 18.4181 22.502 18.4142 22.5801C18.4142 22.6582 18.4122 22.7246 18.4083 22.7793C18.4044 22.8066 18.3907 22.8789 18.3673 22.9961C18.3478 23.1094 18.3087 23.2461 18.2501 23.4062C18.1954 23.5625 18.1153 23.7324 18.0099 23.916C17.9044 24.0957 17.7657 24.2676 17.5938 24.4316C17.422 24.5918 17.213 24.7305 16.9669 24.8477C16.7208 24.9648 16.4278 25.0371 16.088 25.0645C15.7325 25.0957 15.4181 25.0723 15.1446 24.9941C14.8712 24.916 14.6349 24.8047 14.4356 24.6602C14.2364 24.5156 14.0704 24.3496 13.9376 24.1621C13.8048 23.9707 13.6993 23.7754 13.6212 23.5762C13.547 23.377 13.4962 23.1855 13.4688 23.002C13.4454 22.8184 13.4415 22.6621 13.4571 22.5332C13.4806 22.3418 13.506 22.1719 13.5333 22.0234C13.5606 21.8711 13.5919 21.7266 13.6271 21.5898C13.6661 21.4531 13.7091 21.3184 13.756 21.1855C13.8028 21.0527 13.8575 20.9082 13.92 20.752C13.9356 20.7129 13.9786 20.6211 14.0489 20.4766C14.1192 20.3281 14.2052 20.1465 14.3067 19.9316C14.4122 19.7168 14.5294 19.4805 14.6583 19.2227C14.7872 18.9648 14.9161 18.7031 15.045 18.4375C15.3497 17.8203 15.6915 17.1309 16.0704 16.3691H17.4532ZM17.2071 22.6211C17.2071 22.4727 17.2013 22.3086 17.1896 22.1289C17.1778 21.9492 17.1329 21.7793 17.0548 21.6191C16.9806 21.4551 16.8575 21.3145 16.6856 21.1973C16.5138 21.0801 16.2696 21.0098 15.9532 20.9863C15.8048 20.9746 15.67 20.9902 15.5489 21.0332C15.4278 21.0762 15.3204 21.1348 15.2267 21.209C15.1329 21.2832 15.0509 21.3691 14.9806 21.4668C14.9142 21.5605 14.8575 21.6543 14.8106 21.748C14.7677 21.8418 14.7364 21.9297 14.7169 22.0117C14.6974 22.0898 14.6876 22.1504 14.6876 22.1934C14.6876 22.291 14.6896 22.4004 14.6935 22.5215C14.6974 22.6387 14.7091 22.7578 14.7286 22.8789C14.7521 22.9961 14.7892 23.1113 14.8399 23.2246C14.8907 23.334 14.963 23.4316 15.0567 23.5176C15.1505 23.6035 15.2696 23.6738 15.4142 23.7285C15.5626 23.7832 15.7462 23.8105 15.9649 23.8105C16.1407 23.8145 16.2931 23.793 16.422 23.7461C16.5548 23.6953 16.6661 23.6328 16.756 23.5586C16.8497 23.4805 16.9259 23.3945 16.9845 23.3008C17.0431 23.207 17.088 23.1152 17.1192 23.0254C17.1544 22.9355 17.1778 22.8555 17.1896 22.7852C17.2013 22.7109 17.2071 22.6562 17.2071 22.6211Z" fill="#1C1F2A"/>
<path d="M17.75 9.75H19.25C19.3875 9.75 19.5 9.6375 19.5 9.5V8C19.5 7.8625 19.3875 7.75 19.25 7.75H17.75C17.6125 7.75 17.5 7.8625 17.5 8V9.5C17.5 9.6375 17.6125 9.75 17.75 9.75Z" fill="#AFC1D1"/>
</svg>
