<svg width="32" height="32" viewBox="0 0 32 32" fill="none" xmlns="http://www.w3.org/2000/svg">
<path d="M12.75 9.75H14.25C14.3875 9.75 14.5 9.6375 14.5 9.5V8C14.5 7.8625 14.3875 7.75 14.25 7.75H12.75C12.6125 7.75 12.5 7.8625 12.5 8V9.5C12.5 9.6375 12.6125 9.75 12.75 9.75Z" fill="#AFC1D1"/>
<path d="M23.75 13.5V4.5C23.75 3.94687 23.3031 3.5 22.75 3.5H9.25C8.69687 3.5 8.25 3.94687 8.25 4.5V13.5C6.18125 13.5 4.5 15.1281 4.5 17.125V28.25C4.5 28.3875 4.6125 28.5 4.75 28.5H27.25C27.3875 28.5 27.5 28.3875 27.5 28.25V17.125C27.5 15.1281 25.8187 13.5 23.75 13.5ZM21.5 13.5H10.5V5.75H21.5V13.5Z" fill="#AFC1D1"/>
<path d="M13.1465 23.7285V22.5742L16 16.457H17.3652L14.4766 22.5742H16.709V20.1191H17.9336V22.5742H18.6133V23.7285H17.9336V25H16.709V23.7285H13.1465Z" fill="#1C1F2A"/>
<path d="M17.75 9.75H19.25C19.3875 9.75 19.5 9.6375 19.5 9.5V8C19.5 7.8625 19.3875 7.75 19.25 7.75H17.75C17.6125 7.75 17.5 7.8625 17.5 8V9.5C17.5 9.6375 17.6125 9.75 17.75 9.75Z" fill="#AFC1D1"/>
</svg>
