<svg width="32" height="32" viewBox="0 0 32 32" fill="none" xmlns="http://www.w3.org/2000/svg">
<path d="M18.6668 5.33332V19.3867C19.6835 19.9737 20.4782 20.8798 20.9274 21.9645C21.3767 23.0492 21.4556 24.2518 21.1517 25.3858C20.8478 26.5199 20.1782 27.522 19.2468 28.2367C18.3154 28.9514 17.1741 29.3388 16.0001 29.3388C14.826 29.3388 13.6848 28.9514 12.7534 28.2367C11.8219 27.522 11.1523 26.5199 10.8485 25.3858C10.5446 24.2518 10.6234 23.0492 11.0727 21.9645C11.522 20.8798 12.3167 19.9737 13.3334 19.3867V5.33332C13.3334 4.62608 13.6144 3.9478 14.1145 3.4477C14.6146 2.94761 15.2928 2.66666 16.0001 2.66666C16.7073 2.66666 17.3856 2.94761 17.8857 3.4477C18.3858 3.9478 18.6668 4.62608 18.6668 5.33332Z" stroke="white" stroke-width="2.66667" stroke-linecap="round" stroke-linejoin="round"/>
</svg>
