<svg width="36" height="30" viewBox="0 0 36 30" fill="none" xmlns="http://www.w3.org/2000/svg">
<circle cx="18" cy="15" r="11" fill="#AFC1D1"/>
<path d="M5 19L0 15L4.91119 11.071L5 19Z" fill="#AFC1D1"/>
<path d="M31 19L36 15L31.0888 11.071L31 19Z" fill="#AFC1D1"/>
<path fill-rule="evenodd" clip-rule="evenodd" d="M29.5356 21C27.3676 25.1598 23.0155 28 18 28C12.9846 28 8.63251 25.1598 6.46446 21H4.24817C6.56284 26.2977 11.8491 30 18 30C24.151 30 29.4372 26.2977 31.7519 21H29.5356ZM6.46446 9C8.63251 4.84022 12.9846 2 18 2C23.0155 2 27.3676 4.84022 29.5356 9H31.7519C29.4372 3.70229 24.151 0 18 0C11.8491 0 6.56284 3.70229 4.24817 9H6.46446Z" fill="#AFC1D1"/>
<path d="M13.7614 21V9.36364H18.3523C19.2311 9.36364 19.9811 9.52083 20.6023 9.83523C21.2273 10.1458 21.7027 10.5871 22.0284 11.1591C22.358 11.7273 22.5227 12.3958 22.5227 13.1648C22.5227 13.9375 22.3561 14.6023 22.0227 15.1591C21.6894 15.7121 21.2064 16.1364 20.5739 16.4318C19.9451 16.7273 19.1837 16.875 18.2898 16.875H15.2159V14.8977H17.892C18.3617 14.8977 18.7519 14.8333 19.0625 14.7045C19.3731 14.5758 19.6042 14.3826 19.7557 14.125C19.911 13.8674 19.9886 13.5473 19.9886 13.1648C19.9886 12.7784 19.911 12.4527 19.7557 12.1875C19.6042 11.9223 19.3712 11.7216 19.0568 11.5852C18.7462 11.4451 18.3542 11.375 17.8807 11.375H16.2216V21H13.7614ZM20.0455 15.7045L22.9375 21H20.2216L17.392 15.7045H20.0455Z" fill="#1C1F2A"/>
</svg>
