<svg width="20" height="13" viewBox="0 0 20 13" fill="none" xmlns="http://www.w3.org/2000/svg">
<g clip-path="url(#clip0_1_234)">
<path d="M2.4454 0.5H17.5538C18.1731 0.5 18.6461 0.701951 18.963 1.01855C19.2797 1.33514 19.4815 1.80767 19.4815 2.42676V2.44922L19.4835 2.47168C19.4835 2.47229 19.4843 2.47323 19.4845 2.47461C19.4847 2.47807 19.4848 2.48404 19.4854 2.49219C19.4866 2.50848 19.4885 2.53434 19.4903 2.56836C19.494 2.6365 19.4984 2.73871 19.5001 2.87012C19.5035 3.13371 19.4968 3.51367 19.4561 3.9707C19.3746 4.88775 19.1571 6.10055 18.6202 7.30566C18.0848 8.50728 17.2342 9.69544 15.8848 10.5859C14.5362 11.4759 12.6541 12.0918 10.0157 12.0918C7.37723 12.0915 5.49265 11.4761 4.14071 10.5859C2.78804 9.69518 1.93389 8.50635 1.39462 7.30469C0.85383 6.09951 0.632384 4.88673 0.547935 3.96973C0.505879 3.51287 0.497501 3.13274 0.500084 2.86914C0.501382 2.73743 0.505423 2.63456 0.508873 2.56641C0.510597 2.53234 0.512632 2.50652 0.513756 2.49023C0.51428 2.48266 0.514465 2.47709 0.514732 2.47363C0.514866 2.47192 0.514688 2.47026 0.514732 2.46973L0.516685 2.44824V2.42676C0.516738 1.80767 0.719449 1.33514 1.03622 1.01855C1.31347 0.741555 1.71006 0.552701 2.21981 0.509766L2.4454 0.5Z" stroke="#AFC1D1"/>
<path d="M5.872 9.52699V2.14899H7.417V8.18399H11.074V9.52699H5.872Z" fill="#AFC1D1"/>
<path d="M11.138 9.59299H5.806V2.08299H7.482V8.11799H11.138V9.59299ZM5.937 9.46199H11.009V8.24899H7.352V2.21299H5.937V9.46199Z" fill="#AFC1D1"/>
<path d="M12.685 9.52699V4.42699H11.173V3.42599C11.491 3.42599 11.759 3.40099 11.974 3.34799C12.189 3.29699 12.365 3.21699 12.501 3.10999C12.637 3.00299 12.741 2.86999 12.812 2.70999C12.882 2.55099 12.929 2.36399 12.951 2.14899H14.131V9.52699H12.685Z" fill="#AFC1D1"/>
<path d="M14.194 9.59299H12.62V4.49199H11.108V3.36199H11.172C11.485 3.36199 11.748 3.33699 11.957 3.28599C12.162 3.23699 12.33 3.16099 12.461 3.05899C12.588 2.95799 12.686 2.83199 12.752 2.68399C12.818 2.53199 12.863 2.34999 12.885 2.14199L12.891 2.08299H14.194V9.59299ZM12.749 9.46199H14.063V2.21299H13.008C12.983 2.40999 12.938 2.58599 12.871 2.73499C12.797 2.90399 12.685 3.04699 12.539 3.15999C12.396 3.27299 12.209 3.35699 11.988 3.41199C11.783 3.46099 11.531 3.48699 11.236 3.48999V4.36099H12.748V9.46199H12.749Z" fill="#AFC1D1"/>
</g>
<defs>
<clipPath id="clip0_1_234">
<rect width="20.001" height="12.591" fill="white"/>
</clipPath>
</defs>
</svg>
