<svg width="20" height="20" viewBox="0 0 20 20" fill="none" xmlns="http://www.w3.org/2000/svg">
<g clip-path="url(#clip0_101_1562)">
<path d="M10 0.5C15.2467 0.5 19.5 4.75329 19.5 10C19.5 15.2467 15.2467 19.5 10 19.5C4.75329 19.5 0.5 15.2467 0.5 10C0.5 4.75329 4.75329 0.5 10 0.5Z" stroke="#AFC1D1"/>
<path d="M13.2921 14.1733C12.712 14.1733 12.1953 14.0736 11.7421 13.8742C11.2915 13.6722 10.9354 13.3951 10.6738 13.0429C10.4149 12.6881 10.2815 12.2789 10.2737 11.8153H11.9674C11.9778 12.0096 12.0412 12.1805 12.1578 12.3281C12.2769 12.4731 12.4349 12.5858 12.6317 12.6661C12.8285 12.7463 13.0499 12.7865 13.296 12.7865C13.5524 12.7865 13.779 12.7412 13.9758 12.6505C14.1726 12.5599 14.3267 12.4343 14.4381 12.2737C14.5494 12.1131 14.6051 11.928 14.6051 11.7182C14.6051 11.5058 14.5455 11.3181 14.4264 11.1549C14.3099 10.9892 14.1415 10.8597 13.9214 10.7665C13.7039 10.6732 13.4449 10.6266 13.1445 10.6266H12.4025V9.3913H13.1445C13.3983 9.3913 13.6223 9.34728 13.8165 9.25922C14.0133 9.17117 14.1661 9.04945 14.2749 8.89407C14.3837 8.73609 14.4381 8.55222 14.4381 8.34245C14.4381 8.14303 14.3902 7.96822 14.2943 7.81802C14.2011 7.66522 14.069 7.54609 13.8981 7.46063C13.7298 7.37517 13.5329 7.33244 13.3076 7.33244C13.0797 7.33244 12.8713 7.37387 12.6822 7.45675C12.4931 7.53703 12.3416 7.65227 12.2277 7.80248C12.1137 7.95269 12.0529 8.12879 12.0451 8.33079H10.433C10.4408 7.8724 10.5715 7.4684 10.8253 7.11878C11.0791 6.76916 11.421 6.49594 11.8509 6.29912C12.2834 6.09971 12.7715 6 13.3154 6C13.8644 6 14.3448 6.09971 14.7566 6.29912C15.1684 6.49853 15.4882 6.76787 15.7161 7.10713C15.9466 7.4438 16.0606 7.8219 16.058 8.24145C16.0606 8.68689 15.922 9.05852 15.6423 9.35634C15.3652 9.65416 15.0039 9.84322 14.5585 9.9235V9.98565C15.1438 10.0608 15.5892 10.2641 15.8948 10.5955C16.203 10.9244 16.3558 11.3362 16.3532 11.8309C16.3558 12.2841 16.225 12.6868 15.9608 13.039C15.6993 13.3912 15.338 13.6683 14.877 13.8703C14.416 14.0723 13.8877 14.1733 13.2921 14.1733Z" fill="#AFC1D1"/>
<path d="M4 14.0646V6.10878H7.1388C7.73963 6.10878 8.2524 6.21626 8.67712 6.43121C9.10443 6.64357 9.42945 6.94528 9.65217 7.33633C9.87748 7.7248 9.99014 8.18189 9.99014 8.70761C9.99014 9.23593 9.87619 9.69043 9.64829 10.0711C9.42039 10.4492 9.09019 10.7393 8.6577 10.9413C8.2278 11.1433 7.70725 11.2443 7.09607 11.2443H4.99447V9.89243H6.82414C7.14527 9.89243 7.41202 9.84841 7.62438 9.76035C7.83674 9.6723 7.99472 9.54022 8.09831 9.36412C8.20449 9.18802 8.25758 8.96918 8.25758 8.70761C8.25758 8.44346 8.20449 8.22074 8.09831 8.03945C7.99472 7.85817 7.83545 7.72091 7.6205 7.62768C7.40814 7.53186 7.1401 7.48395 6.81637 7.48395H5.68206V14.0646H4ZM8.29643 10.4441L10.2737 14.0646H8.41685L6.48229 10.4441H8.29643Z" fill="#AFC1D1"/>
</g>
<defs>
<clipPath id="clip0_101_1562">
<rect width="20" height="20" fill="white"/>
</clipPath>
</defs>
</svg>
