<svg width="24" height="25" viewBox="0 0 24 25" fill="none" xmlns="http://www.w3.org/2000/svg">
<path d="M15.9707 0.5L11.5 6.19043L7.0293 0.5H15.9707ZM2.5 15.5H2C1.74668 15.5 1.35541 15.42 1.04199 15.1943C0.754097 14.987 0.5 14.637 0.5 14V10.5C0.5 10.33 0.555397 10.0637 0.706055 9.85449C0.838379 9.67083 1.06315 9.5 1.5 9.5H22.5C22.7011 9.5 22.996 9.54267 23.2207 9.65039C23.4339 9.75271 23.5 9.86265 23.5 10V14C23.5 14.637 23.2459 14.987 22.958 15.1943C22.6446 15.42 22.2533 15.5 22 15.5H21.5V24.5H2.5V15.5Z" stroke="#AFC1D1"/>
<path d="M5.25852 21V12.2727H8.7017C9.3608 12.2727 9.9233 12.3906 10.3892 12.6264C10.858 12.8594 11.2145 13.1903 11.4588 13.6193C11.706 14.0455 11.8295 14.5469 11.8295 15.1236C11.8295 15.7031 11.7045 16.2017 11.4545 16.6193C11.2045 17.0341 10.8423 17.3523 10.3679 17.5739C9.89631 17.7955 9.32528 17.9062 8.65483 17.9062H6.34943V16.4233H8.35653C8.70881 16.4233 9.00142 16.375 9.23438 16.2784C9.46733 16.1818 9.64063 16.0369 9.75426 15.8438C9.87074 15.6506 9.92898 15.4105 9.92898 15.1236C9.92898 14.8338 9.87074 14.5895 9.75426 14.3906C9.64063 14.1918 9.46591 14.0412 9.23011 13.9389C8.99716 13.8338 8.70313 13.7812 8.34801 13.7812H7.10369V21H5.25852ZM9.97159 17.0284L12.1406 21H10.1037L7.98153 17.0284H9.97159ZM16.3082 21.1193C15.6719 21.1193 15.1051 21.0099 14.608 20.7912C14.1136 20.5696 13.723 20.2656 13.4361 19.8793C13.152 19.4901 13.0057 19.0412 12.9972 18.5327H14.8551C14.8665 18.7457 14.9361 18.9332 15.0639 19.0952C15.1946 19.2543 15.3679 19.3778 15.5838 19.4659C15.7997 19.554 16.0426 19.598 16.3125 19.598C16.5938 19.598 16.8423 19.5483 17.0582 19.4489C17.2741 19.3494 17.4432 19.2116 17.5653 19.0355C17.6875 18.8594 17.7486 18.6562 17.7486 18.4261C17.7486 18.1932 17.6832 17.9872 17.5526 17.8082C17.4247 17.6264 17.2401 17.4844 16.9986 17.3821C16.7599 17.2798 16.4759 17.2287 16.1463 17.2287H15.3324V15.8736H16.1463C16.4247 15.8736 16.6705 15.8253 16.8835 15.7287C17.0994 15.6321 17.267 15.4986 17.3864 15.3281C17.5057 15.1548 17.5653 14.9531 17.5653 14.723C17.5653 14.5043 17.5128 14.3125 17.4077 14.1477C17.3054 13.9801 17.1605 13.8494 16.973 13.7557C16.7884 13.6619 16.5724 13.6151 16.3253 13.6151C16.0753 13.6151 15.8466 13.6605 15.6392 13.7514C15.4318 13.8395 15.2656 13.9659 15.1406 14.1307C15.0156 14.2955 14.9489 14.4886 14.9403 14.7102H13.1719C13.1804 14.2074 13.3239 13.7642 13.6023 13.3807C13.8807 12.9972 14.2557 12.6974 14.7273 12.4815C15.2017 12.2628 15.7372 12.1534 16.3338 12.1534C16.9361 12.1534 17.4631 12.2628 17.9148 12.4815C18.3665 12.7003 18.7173 12.9957 18.9673 13.3679C19.2202 13.7372 19.3452 14.152 19.3423 14.6122C19.3452 15.1009 19.1932 15.5085 18.8864 15.8352C18.5824 16.1619 18.1861 16.3693 17.6974 16.4574V16.5256C18.3395 16.608 18.8281 16.831 19.1634 17.1946C19.5014 17.5554 19.669 18.0071 19.6662 18.5497C19.669 19.0469 19.5256 19.4886 19.2358 19.875C18.9489 20.2614 18.5526 20.5653 18.0469 20.7869C17.5412 21.0085 16.9616 21.1193 16.3082 21.1193Z" fill="#AFC1D1"/>
</svg>
