<svg width="20" height="13" viewBox="0 0 20 13" fill="none" xmlns="http://www.w3.org/2000/svg">
<g clip-path="url(#clip0_101_1552)">
<path d="M2.4454 0.5H17.5538C18.1731 0.5 18.6461 0.701951 18.963 1.01855C19.2797 1.33514 19.4815 1.80767 19.4815 2.42676V2.44922L19.4835 2.47168C19.4835 2.47229 19.4844 2.47323 19.4845 2.47461C19.4847 2.47807 19.4849 2.48404 19.4854 2.49219C19.4866 2.50848 19.4885 2.53434 19.4903 2.56836C19.494 2.6365 19.4984 2.73871 19.5001 2.87012C19.5035 3.13371 19.4968 3.51367 19.4561 3.9707C19.3746 4.88775 19.1571 6.10055 18.6202 7.30566C18.0848 8.50728 17.2342 9.69544 15.8849 10.5859C14.5363 11.4759 12.6541 12.0918 10.0157 12.0918C7.37724 12.0915 5.49266 11.4761 4.14072 10.5859C2.78805 9.69518 1.9339 8.50635 1.39462 7.30469C0.853837 6.09951 0.632392 4.88673 0.547943 3.96973C0.505887 3.51287 0.497508 3.13274 0.500092 2.86914C0.501389 2.73743 0.505431 2.63456 0.508881 2.56641C0.510605 2.53234 0.512639 2.50652 0.513763 2.49023C0.514288 2.48266 0.514473 2.47709 0.51474 2.47363C0.514874 2.47192 0.514696 2.47026 0.51474 2.46973L0.516693 2.44824V2.42676C0.516746 1.80767 0.719457 1.33514 1.03622 1.01855C1.31348 0.741555 1.71007 0.552701 2.21982 0.509766L2.4454 0.5Z" stroke="#AFC1D1"/>
<path d="M15.196 1.9473V9.72727H13.5549V3.96067H13.4828C13.427 4.04677 13.3283 4.13415 13.1864 4.22279C13.0472 4.31142 12.8686 4.38613 12.6508 4.44692C12.4356 4.5077 12.1848 4.53809 11.8987 4.53809V3.2313C12.1494 3.2313 12.376 3.18824 12.5786 3.10214C12.7838 3.0135 12.9611 2.90206 13.1105 2.76784C13.2599 2.63362 13.3751 2.49306 13.4562 2.34617C13.5372 2.19928 13.5803 2.06633 13.5853 1.9473H15.196Z" fill="#AFC1D1"/>
<path d="M5 9.72727V1.9473H8.06944C8.65699 1.9473 9.15843 2.0524 9.57377 2.2626C9.99164 2.47027 10.3095 2.76531 10.5273 3.14772C10.7476 3.5276 10.8578 3.9746 10.8578 4.4887C10.8578 5.00534 10.7463 5.4498 10.5235 5.82209C10.3006 6.19184 9.97771 6.47548 9.55478 6.67302C9.13438 6.87056 8.62533 6.96933 8.02765 6.96933H5.9725V5.64734H7.76174C8.07577 5.64734 8.33662 5.60429 8.54429 5.51818C8.75196 5.43207 8.90645 5.30292 9.00775 5.1307C9.11158 4.95849 9.1635 4.74449 9.1635 4.4887C9.1635 4.23038 9.11158 4.01258 9.00775 3.83531C8.90645 3.65803 8.7507 3.5238 8.54049 3.43263C8.33283 3.33893 8.07071 3.29208 7.75414 3.29208H6.64489V9.72727H5ZM9.20149 6.18677L11.1351 9.72727H9.31925L7.42744 6.18677H9.20149Z" fill="#AFC1D1"/>
</g>
<defs>
<clipPath id="clip0_101_1552">
<rect width="20.001" height="12.591" fill="white"/>
</clipPath>
</defs>
</svg>
