<svg width="24" height="25" viewBox="0 0 24 25" fill="none" xmlns="http://www.w3.org/2000/svg">
<path d="M15.9707 0.5L11.5 6.19043L7.0293 0.5H15.9707ZM2.5 15.5H2C1.74668 15.5 1.35541 15.42 1.04199 15.1943C0.754097 14.987 0.5 14.637 0.5 14V10.5C0.5 10.33 0.555397 10.0637 0.706055 9.85449C0.838379 9.67083 1.06315 9.5 1.5 9.5H22.5C22.7011 9.5 22.996 9.54267 23.2207 9.65039C23.4339 9.75271 23.5 9.86265 23.5 10V14C23.5 14.637 23.2459 14.987 22.958 15.1943C22.6446 15.42 22.2533 15.5 22 15.5H21.5V24.5H2.5V15.5Z" stroke="#AFC1D1"/>
<path d="M5.25852 21V12.2727H7.10369V19.4787H10.8452V21H5.25852ZM15.2418 21.1193C14.6055 21.1193 14.0387 21.0099 13.5415 20.7912C13.0472 20.5696 12.6566 20.2656 12.3697 19.8793C12.0856 19.4901 11.9393 19.0412 11.9308 18.5327H13.7887C13.8001 18.7457 13.8697 18.9332 13.9975 19.0952C14.1282 19.2543 14.3015 19.3778 14.5174 19.4659C14.7333 19.554 14.9762 19.598 15.2461 19.598C15.5273 19.598 15.7759 19.5483 15.9918 19.4489C16.2077 19.3494 16.3768 19.2116 16.4989 19.0355C16.6211 18.8594 16.6822 18.6562 16.6822 18.4261C16.6822 18.1932 16.6168 17.9872 16.4862 17.8082C16.3583 17.6264 16.1737 17.4844 15.9322 17.3821C15.6935 17.2798 15.4094 17.2287 15.0799 17.2287H14.266V15.8736H15.0799C15.3583 15.8736 15.604 15.8253 15.8171 15.7287C16.033 15.6321 16.2006 15.4986 16.32 15.3281C16.4393 15.1548 16.4989 14.9531 16.4989 14.723C16.4989 14.5043 16.4464 14.3125 16.3413 14.1477C16.239 13.9801 16.0941 13.8494 15.9066 13.7557C15.7219 13.6619 15.506 13.6151 15.2589 13.6151C15.0089 13.6151 14.7802 13.6605 14.5728 13.7514C14.3654 13.8395 14.1992 13.9659 14.0742 14.1307C13.9492 14.2955 13.8825 14.4886 13.8739 14.7102H12.1055C12.114 14.2074 12.2575 13.7642 12.5359 13.3807C12.8143 12.9972 13.1893 12.6974 13.6609 12.4815C14.1353 12.2628 14.6708 12.1534 15.2674 12.1534C15.8697 12.1534 16.3967 12.2628 16.8484 12.4815C17.3001 12.7003 17.6509 12.9957 17.9009 13.3679C18.1538 13.7372 18.2788 14.152 18.2759 14.6122C18.2788 15.1009 18.1268 15.5085 17.82 15.8352C17.516 16.1619 17.1197 16.3693 16.631 16.4574V16.5256C17.2731 16.608 17.7617 16.831 18.0969 17.1946C18.435 17.5554 18.6026 18.0071 18.5998 18.5497C18.6026 19.0469 18.4592 19.4886 18.1694 19.875C17.8825 20.2614 17.4862 20.5653 16.9805 20.7869C16.4748 21.0085 15.8952 21.1193 15.2418 21.1193Z" fill="#AFC1D1"/>
</svg>
