<svg width="20" height="20" viewBox="0 0 20 20" fill="none" xmlns="http://www.w3.org/2000/svg">
<g clip-path="url(#clip0_101_1569)">
<path d="M10 0.5C15.2467 0.5 19.5 4.75329 19.5 10C19.5 15.2467 15.2467 19.5 10 19.5C4.75329 19.5 0.5 15.2467 0.5 10C0.5 4.75329 4.75329 0.5 10 0.5Z" stroke="#AFC1D1"/>
<path d="M6 15V5H10.0025C10.7686 5 11.4225 5.13509 11.9641 5.40527C12.509 5.6722 12.9234 6.05143 13.2074 6.54297C13.4947 7.03125 13.6384 7.60579 13.6384 8.2666C13.6384 8.93066 13.4931 9.50195 13.2025 9.98047C12.9119 10.4557 12.4908 10.8203 11.9393 11.0742C11.3911 11.3281 10.7273 11.4551 9.94799 11.4551H7.26811V9.75586H9.60124C10.0107 9.75586 10.3509 9.70052 10.6217 9.58984C10.8925 9.47917 11.0939 9.31315 11.226 9.0918C11.3614 8.87044 11.4291 8.59538 11.4291 8.2666C11.4291 7.93457 11.3614 7.65462 11.226 7.42676C11.0939 7.19889 10.8908 7.02637 10.6167 6.90918C10.3459 6.78874 10.0041 6.72852 9.59133 6.72852H8.14489V15H6ZM11.4786 10.4492L14 15H11.6322L9.16532 10.4492H11.4786Z" fill="#AFC1D1"/>
</g>
<defs>
<clipPath id="clip0_101_1569">
<rect width="20" height="20" fill="white"/>
</clipPath>
</defs>
</svg>
