<svg width="20" height="22" viewBox="0 0 20 22" fill="none" xmlns="http://www.w3.org/2000/svg">
<g clip-path="url(#clip0_101_1539)">
<path d="M7.52733 0.5C5.44395 0.5 3.26007 1.79016 2.15721 4.14062C1.33718 5.88696 0.919476 8.02417 0.708971 9.74902C0.604286 10.6069 0.5514 11.3536 0.525377 11.8848C0.512396 12.1498 0.506107 12.3608 0.502916 12.5049C0.501328 12.5767 0.500371 12.6321 0.499987 12.6689V12.7227L0.500963 18.6279L0.512682 18.8652C0.567597 19.3989 0.81009 19.7897 1.16405 20.0645C1.58326 20.3898 2.19672 20.5791 2.92577 20.5791H17.5449C18.8081 20.5791 19.5184 19.7053 19.5029 18.8623L19.4902 18.6953C19.4005 18.0399 19.0892 16.7292 18.0547 13.3604C17.3173 10.961 16.0181 7.26403 14.623 5.17871C12.8929 2.59401 10.4603 0.500157 7.52733 0.5Z" stroke="#AFC1D1"/>
<path d="M9.55911 16V14.7977L12.3684 12.1965C12.6073 11.9653 12.8077 11.7572 12.9695 11.5723C13.1339 11.3873 13.2585 11.2062 13.3433 11.0289C13.4281 10.8491 13.4705 10.6551 13.4705 10.447C13.4705 10.2158 13.4178 10.0167 13.3125 9.84971C13.2072 9.68015 13.0633 9.55042 12.8809 9.4605C12.6985 9.36802 12.4917 9.32177 12.2605 9.32177C12.019 9.32177 11.8083 9.37059 11.6285 9.46821C11.4486 9.56583 11.3099 9.70585 11.2123 9.88825C11.1147 10.0706 11.0659 10.2877 11.0659 10.5395H9.48204C9.48204 10.0231 9.59893 9.57482 9.83272 9.19461C10.0665 8.81439 10.3941 8.52023 10.8154 8.31214C11.2367 8.10405 11.7222 8 12.272 8C12.8372 8 13.3292 8.10019 13.7479 8.30058C14.1693 8.49839 14.4968 8.77328 14.7306 9.12524C14.9644 9.4772 15.0813 9.88054 15.0813 10.3353C15.0813 10.6333 15.0222 10.9274 14.904 11.2177C14.7884 11.508 14.5816 11.8304 14.2836 12.185C13.9856 12.5369 13.5655 12.9595 13.0235 13.4528L11.8713 14.5819V14.6358H15.1853V16H9.55911Z" fill="#AFC1D1"/>
<path d="M2.75853 16V8.10791H5.87221C6.46823 8.10791 6.9769 8.21453 7.39823 8.42776C7.82212 8.63842 8.14453 8.93771 8.36547 9.32564C8.58898 9.71099 8.70073 10.1644 8.70073 10.6859C8.70073 11.21 8.58769 11.6609 8.36162 12.0385C8.13554 12.4136 7.80799 12.7014 7.37896 12.9017C6.9525 13.1021 6.43612 13.2023 5.82982 13.2023H3.74504V11.8613H5.56007C5.87864 11.8613 6.14325 11.8176 6.35391 11.7303C6.56457 11.6429 6.72128 11.5119 6.82404 11.3372C6.92937 11.1625 6.98204 10.9454 6.98204 10.6859C6.98204 10.4239 6.92937 10.203 6.82404 10.0231C6.72128 9.8433 6.56329 9.70714 6.35006 9.61465C6.13939 9.5196 5.8735 9.47207 5.55237 9.47207H4.42713V16H2.75853ZM7.02058 12.4085L8.98204 16H7.14004L5.22096 12.4085H7.02058Z" fill="#AFC1D1"/>
</g>
<defs>
<clipPath id="clip0_101_1539">
<rect width="20.004" height="21.08" fill="white" transform="matrix(-1 0 0 1 20.004 0)"/>
</clipPath>
</defs>
</svg>
