<svg width="32" height="32" viewBox="0 0 32 32" fill="none" xmlns="http://www.w3.org/2000/svg">
<rect x="12" y="11.3131" width="7.52941" height="20.6869" rx="3.76471" fill="#AFC1D1"/>
<path d="M11.5826 5.09091C11.5826 5.7178 11.4651 6.25473 11.2303 6.7017C10.9973 7.14678 10.6792 7.48769 10.2758 7.72443C9.87424 7.96117 9.41875 8.07955 8.90928 8.07955C8.39981 8.07955 7.94337 7.96117 7.53996 7.72443C7.13844 7.4858 6.82026 7.14394 6.58541 6.69886C6.35246 6.25189 6.23598 5.71591 6.23598 5.09091C6.23598 4.46402 6.35246 3.92803 6.58541 3.48295C6.82026 3.03598 7.13844 2.69413 7.53996 2.45739C7.94337 2.22064 8.39981 2.10227 8.90928 2.10227C9.41875 2.10227 9.87424 2.22064 10.2758 2.45739C10.6792 2.69413 10.9973 3.03598 11.2303 3.48295C11.4651 3.92803 11.5826 4.46402 11.5826 5.09091ZM10.5229 5.09091C10.5229 4.64962 10.4538 4.27746 10.3155 3.97443C10.1792 3.66951 9.98977 3.43939 9.74734 3.28409C9.50492 3.12689 9.22556 3.0483 8.90928 3.0483C8.59299 3.0483 8.31363 3.12689 8.07121 3.28409C7.82878 3.43939 7.63844 3.66951 7.50019 3.97443C7.36382 4.27746 7.29564 4.64962 7.29564 5.09091C7.29564 5.5322 7.36382 5.9053 7.50019 6.21023C7.63844 6.51326 7.82878 6.74337 8.07121 6.90057C8.31363 7.05587 8.59299 7.13352 8.90928 7.13352C9.22556 7.13352 9.50492 7.05587 9.74734 6.90057C9.98977 6.74337 10.1792 6.51326 10.3155 6.21023C10.4538 5.9053 10.5229 5.5322 10.5229 5.09091ZM12.099 8V2.18182H14.2808C14.7278 2.18182 15.1028 2.26515 15.4058 2.43182C15.7108 2.59848 15.9409 2.82765 16.0962 3.11932C16.2534 3.40909 16.332 3.73864 16.332 4.10795C16.332 4.48106 16.2534 4.8125 16.0962 5.10227C15.939 5.39205 15.707 5.62027 15.4002 5.78693C15.0933 5.9517 14.7155 6.03409 14.2666 6.03409H12.8206V5.16761H14.1246C14.386 5.16761 14.6 5.12216 14.7666 5.03125C14.9333 4.94034 15.0564 4.81534 15.136 4.65625C15.2174 4.49716 15.2581 4.31439 15.2581 4.10795C15.2581 3.90152 15.2174 3.7197 15.136 3.5625C15.0564 3.4053 14.9324 3.28314 14.7638 3.19602C14.5971 3.10701 14.3822 3.0625 14.1189 3.0625H13.153V8H12.099ZM16.5118 3.06534V2.18182H21.1538V3.06534H19.3555V8H18.3101V3.06534H16.5118ZM24.7306 3.78125C24.7041 3.53314 24.5924 3.33996 24.3954 3.2017C24.2003 3.06345 23.9465 2.99432 23.634 2.99432C23.4144 2.99432 23.2259 3.02746 23.0687 3.09375C22.9115 3.16004 22.7912 3.25 22.7079 3.36364C22.6246 3.47727 22.582 3.60701 22.5801 3.75284C22.5801 3.87405 22.6075 3.97917 22.6625 4.06818C22.7193 4.1572 22.796 4.23295 22.8926 4.29545C22.9892 4.35606 23.0962 4.4072 23.2136 4.44886C23.331 4.49053 23.4494 4.52557 23.5687 4.55398L24.1142 4.69034C24.3339 4.74148 24.545 4.81061 24.7477 4.89773C24.9522 4.98485 25.135 5.0947 25.296 5.22727C25.4589 5.35985 25.5876 5.51989 25.6823 5.70739C25.777 5.89489 25.8244 6.11458 25.8244 6.36648C25.8244 6.70739 25.7373 7.00758 25.563 7.26705C25.3888 7.52462 25.1369 7.72633 24.8073 7.87216C24.4797 8.0161 24.0829 8.08807 23.617 8.08807C23.1644 8.08807 22.7714 8.01799 22.438 7.87784C22.1066 7.73769 21.8471 7.53314 21.6596 7.2642C21.474 6.99527 21.3736 6.66761 21.3585 6.28125H22.3954C22.4106 6.4839 22.4731 6.65246 22.5829 6.78693C22.6928 6.9214 22.8358 7.02178 23.0119 7.08807C23.1899 7.15436 23.3888 7.1875 23.6085 7.1875C23.8376 7.1875 24.0384 7.15341 24.2108 7.08523C24.385 7.01515 24.5214 6.91856 24.6198 6.79545C24.7183 6.67045 24.7685 6.52462 24.7704 6.35795C24.7685 6.20644 24.724 6.08144 24.6369 5.98295C24.5498 5.88258 24.4276 5.79924 24.2704 5.73295C24.1151 5.66477 23.9333 5.60417 23.725 5.55114L23.063 5.38068C22.5839 5.25758 22.2051 5.07102 21.9267 4.82102C21.6501 4.56913 21.5119 4.23485 21.5119 3.81818C21.5119 3.47538 21.6047 3.17519 21.7903 2.91761C21.9778 2.66004 22.2325 2.46023 22.5545 2.31818C22.8765 2.17424 23.2411 2.10227 23.6483 2.10227C24.0611 2.10227 24.4229 2.17424 24.7335 2.31818C25.046 2.46023 25.2912 2.65814 25.4693 2.91193C25.6473 3.16383 25.7392 3.4536 25.7448 3.78125H24.7306Z" fill="#AFC1D1"/>
</svg>
