<svg width="32" height="30" viewBox="0 0 32 30" fill="none" xmlns="http://www.w3.org/2000/svg">
<path d="M10 0H23L16.5 8.5L10 0Z" fill="#AFC1D1"/>
<path fill-rule="evenodd" clip-rule="evenodd" d="M13.3282 7.125C5.7635 7.8403 0 11.5416 0 16.0001C0 20.9706 7.16344 25.0001 16 25.0001C24.8366 25.0001 32 20.9706 32 16.0001C32 11.731 26.7159 8.15619 19.6259 7.23217L16.5161 11.5001L13.3282 7.125Z" fill="#AFC1D1"/>
<path fill-rule="evenodd" clip-rule="evenodd" d="M23.2876 25.7813C21.1466 26.5561 18.6568 26.9999 16.0001 26.9999C13.3432 26.9999 10.8533 26.556 8.71216 25.7812C10.2336 28.3155 12.9288 30 15.9999 30C19.071 30 21.7661 28.3155 23.2876 25.7813Z" fill="#AFC1D1"/>
<path d="M10.931 22.2088L13.6258 12H17.8944C18.6654 12 19.3001 12.1362 19.7986 12.4087C20.3004 12.6812 20.6527 13.0684 20.8554 13.5702C21.0614 14.0687 21.1096 14.6569 20.9999 15.3348C20.887 16.0127 20.6427 16.5943 20.2672 17.0795C19.895 17.5646 19.4098 17.9385 18.8116 18.201C18.2168 18.4602 17.5272 18.5898 16.743 18.5898H14.0462L14.3453 16.8551H16.6881C17.1002 16.8551 17.4525 16.7987 17.7449 16.6857C18.0373 16.5727 18.2683 16.4032 18.4378 16.1772C18.6106 15.9512 18.7236 15.6704 18.7767 15.3348C18.8332 14.9925 18.8133 14.7067 18.7169 14.4774C18.6205 14.2448 18.4461 14.0687 18.1935 13.949C17.941 13.8261 17.6086 13.7646 17.1966 13.7646H15.5L13.0894 22.2088H10.931ZM17.4527 17.563L19.2223 22.2088H16.8396L15.1248 17.563H17.4527Z" fill="#1C1F2A"/>
</svg>
