<svg width="36" height="29" viewBox="0 0 36 29" fill="none" xmlns="http://www.w3.org/2000/svg">
<path fill-rule="evenodd" clip-rule="evenodd" d="M18 8L23 0H13L18 8ZM0 17C0 13.134 3.13401 10 7 10H29C32.866 10 36 13.134 36 17H26V29H9V17H0Z" fill="#AFC1D1"/>
<path d="M10.8991 24V15.2727H12.7443V22.4787H16.4858V24H10.8991ZM20.8825 24.1193C20.2461 24.1193 19.6793 24.0099 19.1822 23.7912C18.6879 23.5696 18.2972 23.2656 18.0103 22.8793C17.7262 22.4901 17.5799 22.0412 17.5714 21.5327H19.4293C19.4407 21.7457 19.5103 21.9332 19.6381 22.0952C19.7688 22.2543 19.9421 22.3778 20.158 22.4659C20.3739 22.554 20.6168 22.598 20.8867 22.598C21.168 22.598 21.4165 22.5483 21.6325 22.4489C21.8484 22.3494 22.0174 22.2116 22.1396 22.0355C22.2617 21.8594 22.3228 21.6562 22.3228 21.4261C22.3228 21.1932 22.2575 20.9872 22.1268 20.8082C21.9989 20.6264 21.8143 20.4844 21.5728 20.3821C21.3342 20.2798 21.0501 20.2287 20.7205 20.2287H19.9066V18.8736H20.7205C20.9989 18.8736 21.2447 18.8253 21.4577 18.7287C21.6737 18.6321 21.8413 18.4986 21.9606 18.3281C22.0799 18.1548 22.1396 17.9531 22.1396 17.723C22.1396 17.5043 22.087 17.3125 21.9819 17.1477C21.8796 16.9801 21.7347 16.8494 21.5472 16.7557C21.3626 16.6619 21.1467 16.6151 20.8995 16.6151C20.6495 16.6151 20.4208 16.6605 20.2134 16.7514C20.006 16.8395 19.8398 16.9659 19.7148 17.1307C19.5898 17.2955 19.5231 17.4886 19.5146 17.7102H17.7461C17.7546 17.2074 17.8981 16.7642 18.1765 16.3807C18.4549 15.9972 18.8299 15.6974 19.3015 15.4815C19.7759 15.2628 20.3114 15.1534 20.908 15.1534C21.5103 15.1534 22.0373 15.2628 22.489 15.4815C22.9407 15.7003 23.2915 15.9957 23.5415 16.3679C23.7944 16.7372 23.9194 17.152 23.9165 17.6122C23.9194 18.1009 23.7674 18.5085 23.4606 18.8352C23.1566 19.1619 22.7603 19.3693 22.2717 19.4574V19.5256C22.9137 19.608 23.4023 19.831 23.7376 20.1946C24.0756 20.5554 24.2433 21.0071 24.2404 21.5497C24.2433 22.0469 24.0998 22.4886 23.81 22.875C23.5231 23.2614 23.1268 23.5653 22.6211 23.7869C22.1154 24.0085 21.5359 24.1193 20.8825 24.1193Z" fill="#1C1F2A"/>
</svg>
