<svg width="32" height="30" viewBox="0 0 32 30" fill="none" xmlns="http://www.w3.org/2000/svg">
<path d="M10 0H23L16.5 8.5L10 0Z" fill="#AFC1D1"/>
<path fill-rule="evenodd" clip-rule="evenodd" d="M13.3282 7.125C5.7635 7.8403 0 11.5416 0 16.0001C0 20.9706 7.16344 25.0001 16 25.0001C24.8366 25.0001 32 20.9706 32 16.0001C32 11.731 26.7159 8.15619 19.6259 7.23217L16.5161 11.5001L13.3282 7.125Z" fill="#AFC1D1"/>
<path fill-rule="evenodd" clip-rule="evenodd" d="M23.2876 25.7813C21.1466 26.5561 18.6568 26.9999 16.0001 26.9999C13.3432 26.9999 10.8533 26.556 8.71216 25.7812C10.2336 28.3155 12.9288 30 15.9999 30C19.071 30 21.7661 28.3155 23.2876 25.7813Z" fill="#AFC1D1"/>
<path d="M10 21H19.6645L20 19.2568H13.0569L14.6572 11H12.0883L10 21Z" fill="#1C1F2A"/>
</svg>
