<svg width="36" height="29" viewBox="0 0 36 29" fill="none" xmlns="http://www.w3.org/2000/svg">
<path fill-rule="evenodd" clip-rule="evenodd" d="M18 8L23 0H13L18 8ZM0 17C0 13.134 3.13401 10 7 10H29C32.866 10 36 13.134 36 17H26V29H9V17H0Z" fill="#AFC1D1"/>
<path d="M10.6059 24V15.2727H14.0491C14.7082 15.2727 15.2707 15.3906 15.7366 15.6264C16.2054 15.8594 16.5619 16.1903 16.8062 16.6193C17.0534 17.0455 17.177 17.5469 17.177 18.1236C17.177 18.7031 17.052 19.2017 16.802 19.6193C16.552 20.0341 16.1898 20.3523 15.7153 20.5739C15.2437 20.7955 14.6727 20.9062 14.0023 20.9062H11.6969V19.4233H13.704C14.0562 19.4233 14.3488 19.375 14.5818 19.2784C14.8148 19.1818 14.988 19.0369 15.1017 18.8438C15.2182 18.6506 15.2764 18.4105 15.2764 18.1236C15.2764 17.8338 15.2182 17.5895 15.1017 17.3906C14.988 17.1918 14.8133 17.0412 14.5775 16.9389C14.3446 16.8338 14.0505 16.7812 13.6954 16.7812H12.4511V24H10.6059ZM15.319 20.0284L17.488 24H15.4511L13.329 20.0284H15.319ZM21.1757 24.1193C20.5393 24.1193 19.9725 24.0099 19.4754 23.7912C18.9811 23.5696 18.5904 23.2656 18.3035 22.8793C18.0194 22.4901 17.8731 22.0412 17.8646 21.5327H19.7225C19.7339 21.7457 19.8035 21.9332 19.9313 22.0952C20.062 22.2543 20.2353 22.3778 20.4512 22.4659C20.6671 22.554 20.91 22.598 21.1799 22.598C21.4612 22.598 21.7098 22.5483 21.9257 22.4489C22.1416 22.3494 22.3106 22.2116 22.4328 22.0355C22.5549 21.8594 22.616 21.6562 22.616 21.4261C22.616 21.1932 22.5507 20.9872 22.42 20.8082C22.2921 20.6264 22.1075 20.4844 21.866 20.3821C21.6274 20.2798 21.3433 20.2287 21.0137 20.2287H20.1998V18.8736H21.0137C21.2921 18.8736 21.5379 18.8253 21.7509 18.7287C21.9669 18.6321 22.1345 18.4986 22.2538 18.3281C22.3731 18.1548 22.4328 17.9531 22.4328 17.723C22.4328 17.5043 22.3802 17.3125 22.2751 17.1477C22.1728 16.9801 22.0279 16.8494 21.8404 16.7557C21.6558 16.6619 21.4399 16.6151 21.1927 16.6151C20.9427 16.6151 20.714 16.6605 20.5066 16.7514C20.2992 16.8395 20.133 16.9659 20.008 17.1307C19.883 17.2955 19.8163 17.4886 19.8078 17.7102H18.0393C18.0478 17.2074 18.1913 16.7642 18.4697 16.3807C18.7481 15.9972 19.1231 15.6974 19.5947 15.4815C20.0691 15.2628 20.6046 15.1534 21.2012 15.1534C21.8035 15.1534 22.3305 15.2628 22.7822 15.4815C23.2339 15.7003 23.5848 15.9957 23.8348 16.3679C24.0876 16.7372 24.2126 17.152 24.2098 17.6122C24.2126 18.1009 24.0606 18.5085 23.7538 18.8352C23.4498 19.1619 23.0535 19.3693 22.5649 19.4574V19.5256C23.2069 19.608 23.6955 19.831 24.0308 20.1946C24.3688 20.5554 24.5365 21.0071 24.5336 21.5497C24.5365 22.0469 24.393 22.4886 24.1032 22.875C23.8163 23.2614 23.42 23.5653 22.9143 23.7869C22.4086 24.0085 21.8291 24.1193 21.1757 24.1193Z" fill="#1C1F2A"/>
</svg>
