<svg width="32" height="32" viewBox="0 0 32 32" fill="none" xmlns="http://www.w3.org/2000/svg">
<path d="M8.00004 29.3333C7.2928 29.3333 6.61452 29.0524 6.11442 28.5523C5.61433 28.0522 5.33337 27.3739 5.33337 26.6667V5.33333C5.33337 4.62608 5.61433 3.94781 6.11442 3.44771C6.61452 2.94761 7.2928 2.66666 8.00004 2.66666H18.6667C19.0888 2.66598 19.5068 2.7488 19.8967 2.91035C20.2867 3.07191 20.6408 3.30901 20.9387 3.60799L25.7227 8.39199C26.0225 8.69 26.2603 9.04445 26.4223 9.43488C26.5843 9.8253 26.6674 10.244 26.6667 10.6667V26.6667C26.6667 27.3739 26.3858 28.0522 25.8857 28.5523C25.3856 29.0524 24.7073 29.3333 24 29.3333H8.00004Z" fill="#A5E49F" stroke="#A5E49F" stroke-width="2.66667" stroke-linecap="round" stroke-linejoin="round"/>
<path d="M18.6666 2.66666V9.33332C18.6666 9.68695 18.8071 10.0261 19.0572 10.2761C19.3072 10.5262 19.6463 10.6667 20 10.6667H26.6666" stroke="#A5E49F" stroke-width="2.66667" stroke-linecap="round" stroke-linejoin="round"/>
</svg>
