<svg width="32" height="32" viewBox="0 0 32 32" fill="none" xmlns="http://www.w3.org/2000/svg">
<path d="M26.6666 26.6667C27.3739 26.6667 28.0521 26.3857 28.5522 25.8856C29.0523 25.3855 29.3333 24.7072 29.3333 24V10.6667C29.3333 9.95942 29.0523 9.28115 28.5522 8.78105C28.0521 8.28095 27.3739 8 26.6666 8H16.1333C15.6873 8.00437 15.2474 7.89682 14.8537 7.68717C14.46 7.47753 14.1252 7.1725 13.88 6.8L12.8 5.2C12.5571 4.83129 12.2266 4.52864 11.838 4.3192C11.4493 4.10975 11.0148 4.00007 10.5733 4H5.33329C4.62605 4 3.94777 4.28095 3.44767 4.78105C2.94758 5.28115 2.66663 5.95942 2.66663 6.66667V24C2.66663 24.7072 2.94758 25.3855 3.44767 25.8856C3.94777 26.3857 4.62605 26.6667 5.33329 26.6667H26.6666Z" fill="#88B4F9" stroke="#88B4F9" stroke-width="2.66667" stroke-linecap="round" stroke-linejoin="round"/>
</svg>
